<svg xmlns="http://www.w3.org/2000/svg" viewBox="0 0 56 56" width="56" height="56">
	<style>
		tspan { white-space:pre }
		.shp0 { fill: #ffffff }
	</style>
	<path id="Fill-1" fill-rule="evenodd" class="shp0" d="M30.1 3.6C35.3 3.8 41.4 6.2 42.6 6.9C44.6 8 47.6 10 47.6 10.6C46.9 10.3 43.1 7.4 41.5 7.3C41.2 7.6 43.5 8.7 44.6 9.4C47.8 11.3 50.4 14.7 51.6 17.3C51.5 18 50.5 15.7 50.1 15.7C49.3 14.6 48.4 13.4 47.3 12.5C46.9 12.3 47 11.6 46.5 11.7C46.3 11.8 46.3 11.4 46.1 11.6C45.7 11.1 45.3 10.6 44.7 10.2L44.5 10C43.9 9.7 41.8 8.2 39.1 7.3C35.5 6 31.1 5.8 31.1 5.8C12.4 5.3 1.8 26.5 11.3 40.6C21.8 56.2 41.5 50.5 48.6 43.2C48.5 44.4 45.1 46.6 45.2 47.1C46.4 46.7 49 43.7 50.5 41.9C50 42.9 49.4 44 48.7 44.9C48.9 45.2 48 45.7 47.8 46.1C50.5 44.1 51.9 40.6 53.9 38.1C54.3 39 53.1 40.9 52.7 41.9C52.6 42 52.1 42.2 52.3 42.4C51.2 45.3 47.9 48.7 43.8 51.2C44.1 51.3 45.7 50.2 46.1 50.1C45.8 51 44 51.4 43.4 52C42.4 52.4 41 53 40.1 53.5C28.4 58.1 16.7 54.6 9.4 46.6C1.5 37.9 -1.1 24.2 6.7 12.9C6.8 12.8 6.9 12.7 6.9 12.6L6.8 12.6C9 9.3 12.2 6.5 15.5 4.5C19.1 2.5 23.2 0.9 27.2 0.9C27.1 0.8 27 0.9 26.9 0.8C29.5 0.4 31.1 0.3 32.8 0.4C33.7 0.6 34.8 0.8 35.5 1C34.7 0.4 36.7 1.1 37 1.2C37 1.2 37 1 37.2 1.2C37.8 1.6 38.6 1.6 39.2 2.1C39.2 1.8 40.6 2.3 40.9 2.3C41.4 2.7 42.1 2.8 42.2 3.2C42.1 3.2 41.8 3 41.8 3.3C41.7 3.4 41.5 3.3 41.5 3.2C41.1 2.8 39.6 2.5 39 2.5C37.8 1.8 36.6 2.1 35.6 1.5C35.7 1.6 35.1 1.4 35.1 1.5C34.6 1.5 34.3 1.4 33.8 1.4C33.8 1.3 33.9 1.4 33.9 1.3C33.6 1.3 33.3 1.3 33 1.4C32.8 1.4 32.5 1.4 32.8 1.2C32.3 1.2 31 1.3 30.5 1.4C31 1.5 31.5 1.7 32 1.6C34 1.7 35.7 2.4 37.6 2.6C39.6 3.4 41.7 3.8 43.8 5.1C44.8 5.7 45.8 6 46.5 6.9C46.8 7 47 7.4 47.3 7.6C47.2 7.6 47.2 7.6 47.2 7.6C47.3 7.8 47.5 7.9 47.4 7.6C47.6 7.7 48.4 8 48 8.1C49.8 9.4 51.1 10.8 52.4 12.5C52.5 12.8 52.2 12.5 52.2 12.4C51.7 12.3 51.8 12 51.4 11.6C50.7 11.2 50.3 10.5 49.6 10.2C49.5 10.2 49.4 10.1 49.4 10C49.3 9.9 49.5 9.9 49.5 9.8C49.4 9.6 49.1 9.8 48.9 9.5C48.9 9.3 48.7 9.3 48.6 9.1C48.4 9.6 48.9 9.8 48.8 10.3C49.5 10.6 50 11.6 50.6 12.1C50.7 12.2 50.7 12.4 50.5 12.3C50.2 11.9 49.8 11.6 49.4 11.2C49.3 11 49.2 10.8 49 10.9C48.8 10.8 48.6 10.2 48.3 10.3C48.1 10.3 48.1 9.9 47.8 9.9C47.6 9.7 47.8 9.8 47.9 9.8C39.5 2.3 26.4 0.2 16.6 6.3C16.9 6.7 17.1 6.3 18.6 5.6C18.9 5.2 20.2 5 20.9 4.7C21.3 4.7 21.8 4.5 22.2 4.3C22.3 4.2 22.5 4.5 22.5 4.3C23.7 3.8 25.4 3.9 26.8 3.6C27.6 3.5 28.5 3.8 29 3.5C29.2 3.7 29.7 3.3 29.6 3.6M43.5 47.8C44 47.9 44.5 47.6 44.7 47.1C44.9 46.8 43.7 47.5 43.5 47.8ZM28.9 2C28.8 1.8 28.8 1.8 28.5 1.8C28.9 2 28.3 2 28.1 1.9C27.8 1.9 27.3 1.9 26.9 1.9C26 2.4 24.9 2.1 24.1 2.4C22.5 2.8 20.6 3.1 19.1 3.9C19.8 3.8 20.6 3.4 21.2 3.4C21.2 3.3 21.3 3.2 21.4 3.3C21.8 3.6 22.6 3.1 23.1 3C22.7 3 22.3 3.2 21.9 3.3C23.2 2.6 25.5 2.4 27 2.4C26.9 2.5 27 2.5 27.1 2.5C27.3 2.3 27.9 2.6 27.5 2.3C27.5 2.2 27.7 2.2 27.8 2.3C28.1 2.3 28.6 2 28.9 2Z" />
</svg>